<?xml version="1.0" standalone="no"?>
<!DOCTYPE svg PUBLIC "-//W3C//DTD SVG 20010904//EN"
 "http://www.w3.org/TR/2001/REC-SVG-20010904/DTD/svg10.dtd">
<svg version="1.0" xmlns="http://www.w3.org/2000/svg"
 width="500.000000pt" height="500.000000pt" viewBox="0 0 500.000000 500.000000"
 preserveAspectRatio="xMidYMid meet">
<metadata>
Created by potrace 1.14, written by Peter Selinger 2001-2017
</metadata>
<g transform="translate(0.000000,500.000000) scale(0.100000,-0.100000)"
fill="#000000" stroke="none">
<path d="M1748 3256 l-1748 -1743 0 -159 0 -159 348 345 c191 190 1049 1046
1908 1903 l1560 1557 -160 -1 -161 0 -1747 -1743z"/>
<path d="M4113 4261 l-742 -738 -208 -5 c-198 -5 -215 -7 -343 -41 -160 -42
-233 -69 -369 -135 -477 -234 -830 -690 -941 -1214 -24 -113 -44 -353 -36
-429 l5 -55 -739 -739 -740 -739 0 -83 0 -83 78 0 77 0 680 680 679 679 43
-132 c48 -146 126 -311 204 -431 l52 -78 -359 -359 -359 -359 160 0 160 0 271
271 272 272 98 -88 c543 -485 1301 -590 1959 -270 477 232 831 684 943 1205
124 577 -39 1156 -450 1596 l-47 50 269 269 270 270 0 160 0 160 -357 -357
-358 -356 -80 54 c-107 73 -280 157 -412 200 -60 19 -115 37 -123 40 -9 3 214
232 658 677 l672 672 0 88 0 87 -72 0 -73 -1 -742 -738z m-559 -1132 c155 -37
365 -126 446 -190 l25 -19 -973 -971 c-735 -732 -977 -967 -986 -960 -25 21
-126 230 -160 332 -36 106 -66 252 -66 318 0 34 33 69 743 779 l742 744 70 -6
c39 -4 110 -16 159 -27z m-1129 -549 c-356 -356 -561 -555 -563 -545 -5 22 42
182 78 270 39 92 120 233 178 310 149 196 404 384 623 461 91 32 197 62 224
63 13 1 -178 -197 -540 -559z m1898 70 c233 -288 343 -646 309 -1005 -24 -251
-98 -461 -236 -668 -199 -299 -548 -528 -906 -593 -143 -26 -393 -24 -530 5
-265 56 -481 167 -684 353 l-59 54 994 991 994 991 28 -26 c16 -15 56 -61 90
-102z"/>
</g>
</svg>
