<?xml version="1.0" encoding="UTF-8" standalone="no"?>
<!DOCTYPE svg PUBLIC "-//W3C//DTD SVG 20010904//EN"
              "http://www.w3.org/TR/2001/REC-SVG-20010904/DTD/svg10.dtd">

<svg xmlns="http://www.w3.org/2000/svg"
     width="0.666667in" height="0.666667in"
     viewBox="0 0 200 200">
  <path id="選択範囲"
        fill="#000" stroke="none"
        d="M 68.00,85.00
           C 68.00,85.00 41.00,62.41 41.00,62.41
             41.00,62.41 14.00,40.51 14.00,40.51
             7.43,36.94 3.70,42.87 4.17,49.00
             4.17,49.00 6.83,74.00 6.83,74.00
             6.83,74.00 15.00,155.00 15.00,155.00
             15.64,162.29 14.98,175.39 23.00,178.40
             24.90,179.11 27.94,179.00 30.00,179.00
             30.00,179.00 170.00,179.00 170.00,179.00
             172.49,179.00 175.72,179.19 177.94,177.98
             183.88,174.75 183.86,158.62 184.72,152.00
             184.72,152.00 194.84,67.00 194.84,67.00
             195.55,60.30 200.26,42.19 191.98,39.65
             188.22,38.50 184.68,41.75 182.00,43.92
             182.00,43.92 160.00,61.92 160.00,61.92
             160.00,61.92 133.00,84.00 133.00,84.00
             133.00,84.00 113.85,35.00 113.85,35.00
             111.67,29.78 109.25,20.65 103.00,19.33
             95.26,17.71 92.06,27.58 89.72,33.00
             89.72,33.00 68.00,85.00 68.00,85.00 Z
           M 102.00,41.00
           C 102.00,41.00 120.55,88.00 120.55,88.00
             122.27,92.22 125.15,101.47 131.00,101.18
             134.34,101.01 143.09,92.83 146.00,90.41
             146.00,90.41 182.00,61.00 182.00,61.00
             182.00,61.00 178.28,92.00 178.28,92.00
             178.28,92.00 173.72,132.00 173.72,132.00
             173.72,132.00 170.00,166.00 170.00,166.00
             170.00,166.00 29.00,166.00 29.00,166.00
             29.00,166.00 26.17,135.00 26.17,135.00
             26.17,135.00 20.83,80.00 20.83,80.00
             20.83,80.00 19.00,61.00 19.00,61.00
             19.00,61.00 56.00,91.25 56.00,91.25
             59.03,93.77 67.13,101.76 71.00,101.13
             76.59,100.21 80.24,89.65 82.06,85.00
             82.06,85.00 92.55,61.00 92.55,61.00
             94.94,55.15 98.21,45.79 102.00,41.00 Z" />
</svg>
