<?xml version="1.0" encoding="UTF-8" standalone="no"?>
<!DOCTYPE svg PUBLIC "-//W3C//DTD SVG 20010904//EN"
              "http://www.w3.org/TR/2001/REC-SVG-20010904/DTD/svg10.dtd">

<svg xmlns="http://www.w3.org/2000/svg"
     width="1.66667in" height="1.66667in"
     viewBox="0 0 150 150">
  <path id="選択範囲"
        fill="#000" stroke="none"
        d="M 9.11,25.74
           C 7.66,26.65 7.20,26.55 6.17,28.23
             4.31,31.28 5.00,44.75 5.00,49.00
             5.00,49.00 5.00,114.00 5.00,114.00
             5.00,116.99 4.69,121.16 6.74,123.57
             8.83,126.02 12.06,125.96 15.00,126.00
             15.00,126.00 36.00,126.00 36.00,126.00
             36.00,126.00 134.00,126.00 134.00,126.00
             136.63,126.00 140.50,126.22 142.77,124.83
             147.57,121.90 146.00,108.25 146.00,103.00
             146.00,103.00 146.00,37.00 146.00,37.00
             146.00,34.01 146.31,29.84 144.26,27.43
             142.17,24.98 138.94,25.04 136.00,25.00
             136.00,25.00 115.00,25.00 115.00,25.00
             115.00,25.00 44.00,25.00 44.00,25.00
             36.64,25.00 14.84,24.29 9.11,25.74 Z
           M 126.00,36.00
           C 126.00,36.00 90.00,66.08 90.00,66.08
             87.26,68.35 77.97,76.72 75.00,76.98
             71.54,77.27 63.79,69.76 61.00,67.41
             54.06,61.59 29.16,41.34 25.00,36.00
             25.00,36.00 126.00,36.00 126.00,36.00 Z
           M 17.00,42.00
           C 17.00,42.00 59.00,77.25 59.00,77.25
             62.19,79.91 71.10,88.48 75.00,88.19
             78.32,87.94 88.91,78.49 92.00,75.92
             92.00,75.92 120.00,53.00 120.00,53.00
             124.81,49.12 129.33,44.55 135.00,42.00
             135.00,42.00 135.00,115.00 135.00,115.00
             135.00,115.00 16.00,115.00 16.00,115.00
             16.00,115.00 16.00,65.00 16.00,65.00
             16.00,65.00 17.00,42.00 17.00,42.00 Z" />
</svg>
