<?xml version="1.0" encoding="UTF-8" standalone="no"?>
<!DOCTYPE svg PUBLIC "-//W3C//DTD SVG 20010904//EN"
              "http://www.w3.org/TR/2001/REC-SVG-20010904/DTD/svg10.dtd">

<svg xmlns="http://www.w3.org/2000/svg"
     width="2.77778in" height="2.77778in"
     viewBox="0 0 200 200">
  <path id="選択範囲 #1"
        fill="#000" stroke="none"
        d="M 69.00,9.44
           C 52.59,12.47 36.57,19.39 25.17,32.00
             -5.05,65.46 0.64,119.64 39.00,144.30
             53.16,153.41 65.47,156.03 82.00,156.00
             89.22,155.99 96.13,154.74 103.00,152.48
             105.74,151.58 110.77,148.67 113.42,149.96
             115.15,150.80 123.08,159.08 125.00,161.00
             125.00,161.00 150.00,186.00 150.00,186.00
             154.78,190.78 159.85,197.28 167.00,197.89
             174.78,198.56 181.20,194.03 181.89,186.00
             182.62,177.55 177.47,173.47 172.00,168.00
             172.00,168.00 147.00,143.00 147.00,143.00
             144.99,140.99 137.06,133.73 136.67,131.42
             136.35,129.61 138.31,127.40 139.28,125.99
             142.44,121.39 144.37,118.07 146.69,113.00
             152.41,100.51 153.15,91.42 153.00,78.00
             152.89,69.28 149.94,58.86 146.22,51.00
             132.03,21.03 101.64,5.26 69.00,9.44 Z
           M 77.00,19.29
           C 83.91,18.80 94.42,21.05 101.00,23.34
             108.82,26.07 113.68,29.11 120.00,34.44
             134.15,46.37 141.51,62.71 142.82,81.00
             143.04,84.18 142.33,87.82 141.87,91.00
             138.50,114.48 122.61,134.36 100.00,142.00
             94.74,143.77 83.39,146.20 78.00,145.82
             67.43,145.06 54.90,141.72 46.00,135.90
             17.30,117.14 6.93,78.32 26.10,49.00
             39.12,29.08 54.55,22.55 77.00,19.29 Z
           M 108.00,43.84
           C 106.15,44.82 104.22,45.60 103.91,48.04
             103.48,51.43 107.71,54.89 110.94,54.00
             116.26,52.54 115.85,43.32 108.00,43.84 Z
           M 116.98,58.08
           C 108.60,62.74 114.21,67.99 115.68,77.00
             116.44,81.68 115.75,85.48 114.63,90.00
             112.08,100.23 107.17,108.84 99.00,115.68
             99.00,115.68 84.88,125.39 84.88,125.39
             83.10,128.31 85.96,134.73 94.00,131.87
             113.16,125.04 125.14,102.34 126.68,83.00
             127.05,78.29 124.01,61.53 120.35,58.65
             118.64,57.31 117.52,58.05 116.98,58.08 Z" />
</svg>
