<?xml version="1.0" encoding="UTF-8" standalone="no"?>
<!DOCTYPE svg PUBLIC "-//W3C//DTD SVG 20010904//EN"
              "http://www.w3.org/TR/2001/REC-SVG-20010904/DTD/svg10.dtd">

<svg xmlns="http://www.w3.org/2000/svg"
     width="2.77778in" height="2.77778in"
     viewBox="0 0 200 200">
  <path id="選択範囲"
        fill="#000" stroke="none"
        d="M 103.00,67.00
           C 97.34,54.15 93.17,41.23 80.00,33.90
             54.80,19.90 22.69,36.43 22.01,66.00
             21.88,71.93 22.69,76.23 23.80,82.00
             28.70,107.36 40.58,120.01 56.83,139.00
             56.83,139.00 64.46,149.00 64.46,149.00
             64.46,149.00 75.00,160.00 75.00,160.00
             75.00,160.00 94.00,177.41 94.00,177.41
             96.45,179.45 99.64,182.51 103.00,182.55
             107.15,182.60 110.41,178.64 113.09,175.98
             113.09,175.98 130.00,160.00 130.00,160.00
             130.00,160.00 140.54,149.00 140.54,149.00
             140.54,149.00 148.17,139.00 148.17,139.00
             164.42,120.01 176.30,107.36 181.20,82.00
             182.00,77.84 182.89,73.22 182.99,69.00
             183.61,41.38 158.34,22.16 132.00,30.89
             119.35,35.08 113.50,42.51 107.75,54.00
             105.19,59.12 103.90,61.23 103.00,67.00 Z" />
</svg>
