<?xml version="1.0" encoding="UTF-8" standalone="no"?>
<!DOCTYPE svg PUBLIC "-//W3C//DTD SVG 20010904//EN"
              "http://www.w3.org/TR/2001/REC-SVG-20010904/DTD/svg10.dtd">

<svg xmlns="http://www.w3.org/2000/svg"
     width="3.33333in" height="3.33333in"
     viewBox="0 0 300 300">
  <path id="y"
        fill="#000" stroke="none"
        d="M 116.12,6.52
           C 110.81,6.52 106.50,10.83 106.50,16.14
             106.50,19.23 108.01,21.93 110.28,23.69
             110.28,23.69 110.28,222.99 110.28,222.99
             110.28,222.99 10.93,222.99 10.93,222.99
             10.93,222.99 66.48,292.11 108.81,294.20
             193.78,298.41 291.30,222.99 291.30,222.99
             291.30,222.99 122.20,222.99 122.20,222.99
             122.20,222.99 122.20,23.51 122.20,23.51
             124.34,21.74 125.74,19.12 125.74,16.13
             125.74,10.82 121.43,6.52 116.13,6.52
             116.13,6.52 116.12,6.52 116.12,6.52 Z
           M 129.58,21.21
           C 143.87,94.45 154.24,164.56 129.58,206.64
             129.58,206.64 270.53,206.82 270.53,206.82
             244.13,144.95 203.28,83.07 129.58,21.21
             129.58,21.21 129.58,21.21 129.58,21.21 Z
           M 103.20,83.40
           C 89.89,150.46 42.88,173.25 8.04,206.94
             8.04,206.94 103.20,206.82 103.20,206.82
             103.20,206.82 103.20,83.40 103.20,83.40
             103.20,83.40 103.20,83.40 103.20,83.40 Z" />
</svg>
